<svg xmlns="http://www.w3.org/2000/svg" width="1080" height="1920" viewBox="0 0 1080 1920" font-family="Helvetica, Arial, sans-serif">
  <defs>
    <!-- background gradient -->
    <linearGradient id="bg" x1="0" y1="0" x2="0" y2="1">
      <stop offset="0" stop-color="#252b4d"/>
      <stop offset="1" stop-color="#1b213f"/>
    </linearGradient>

    <!-- rose glow behind the app icon -->
    <radialGradient id="glow" cx="0.5" cy="0.5" r="0.5">
      <stop offset="0" stop-color="#eebbc3" stop-opacity="0.30"/>
      <stop offset="1" stop-color="#eebbc3" stop-opacity="0"/>
    </radialGradient>

    <!-- soft shadow for the icon tile -->
    <filter id="tileShadow" x="-60%" y="-60%" width="220%" height="220%">
      <feDropShadow dx="0" dy="16" stdDeviation="26" flood-color="#000000" flood-opacity="0.38"/>
    </filter>

    <!-- the Unravel arrow-cluster mark (fill/stroke set by each use) -->
    <g id="mark">
      <path d="M140 62.52L83.2301 68.95C81.812 69.1182 80.3744 68.9467 79.0358 68.4495C77.6971 67.9522 76.4957 67.1436 75.5314 66.0903C74.567 65.0371 73.8674 63.7695 73.4899 62.3923C73.1123 61.0151 73.0676 59.5677 73.36 58.1699L77.5299 37.75C77.8133 36.3533 78.4247 35.0438 79.3131 33.9294C80.2015 32.815 81.3418 31.9274 82.6403 31.3398L94.3302 26.02L88.59 54.1399L123.65 50.1399C125.067 49.9772 126.502 50.1536 127.838 50.6543C129.173 51.155 130.37 51.9658 131.33 53.02L140 62.52Z"/>
      <path d="M100.46 140.73L76.8102 88.73C76.2136 87.4339 75.9338 86.0145 75.9938 84.5889C76.0537 83.1633 76.4516 81.7725 77.1549 80.5311C77.8582 79.2896 78.8463 78.2331 80.0382 77.4488C81.2302 76.6645 82.5915 76.1747 84.0099 76.0201L104.72 73.67C106.137 73.5121 107.57 73.6908 108.905 74.1912C110.239 74.6916 111.437 75.4998 112.4 76.5501L121.07 86.0301L92.5499 89.2501L107.16 121.37C107.75 122.669 108.025 124.088 107.962 125.513C107.899 126.938 107.501 128.328 106.8 129.57L100.46 140.73Z"/>
      <path d="M77.8701 0.820068L66.4399 56.8201C66.1609 58.2199 65.5528 59.5331 64.666 60.6516C63.7793 61.7701 62.6396 62.6619 61.3403 63.2529C60.0411 63.8439 58.6197 64.1174 57.1938 64.0508C55.768 63.9842 54.3787 63.5794 53.1401 62.8699L35 52.5798C33.7575 51.8781 32.6995 50.8912 31.9136 49.7002C31.1277 48.5092 30.6364 47.1483 30.48 45.73L29.0298 32.97L54.0298 47.1199L61.0898 12.55C61.3732 11.1533 61.9847 9.84389 62.873 8.72949C63.7614 7.61509 64.9018 6.72743 66.2002 6.13989L77.8701 0.820068Z"/>
      <path d="M13.8901 127.39L56.04 88.8201C57.0891 87.851 58.3534 87.1455 59.729 86.7618C61.1046 86.3781 62.552 86.3273 63.9512 86.6136C65.3503 86.8999 66.6615 87.5149 67.7759 88.408C68.8903 89.3012 69.7758 90.4468 70.3599 91.7501L78.9902 110.75C79.5832 112.048 79.8588 113.469 79.7944 114.895C79.7301 116.32 79.3276 117.71 78.6201 118.95L72.29 130.12L60.4102 104L34.4102 127.82C33.3588 128.784 32.0931 129.485 30.7178 129.864C29.3425 130.243 27.8969 130.29 26.5 130L13.8901 127.39Z"/>
      <path d="M0 40.8298L49.71 69C50.955 69.6983 52.0161 70.6825 52.8057 71.8718C53.5952 73.0611 54.0908 74.4211 54.251 75.8396C54.4112 77.2581 54.2314 78.6944 53.7271 80.0298C53.2227 81.3652 52.4081 82.5616 51.3501 83.52L36 97.5898C34.9497 98.5526 33.6859 99.2524 32.3125 99.6313C30.9391 100.01 29.4955 100.058 28.1001 99.77L15.5098 97.2L36.6802 77.8298L6 60.45C4.75878 59.7492 3.70184 58.7636 2.91602 57.5745C2.13019 56.3853 1.63793 55.0264 1.47998 53.6099L0 40.8298Z"/>
    </g>
  </defs>

  <!-- background -->
  <rect width="1080" height="1920" fill="url(#bg)"/>

  <!-- subtle scattered marks -->
  <use href="#mark" fill="#b8c1ec" opacity="0.05" transform="translate(-40 -30) rotate(-18 70 70) scale(3.4)"/>
  <use href="#mark" fill="#eebbc3" opacity="0.05" transform="translate(690 1470) rotate(150 70 70) scale(3.8)"/>
  <use href="#mark" fill="#b8c1ec" opacity="0.045" transform="translate(880 250) rotate(30 70 70) scale(1.7)"/>

  <!-- glow behind icon -->
  <circle cx="540" cy="290" r="300" fill="url(#glow)"/>

  <!-- app icon tile -->
  <rect x="435" y="185" width="210" height="210" rx="48" fill="#eebbc3" filter="url(#tileShadow)"/>
  <use href="#mark" fill="#232946" stroke="#ffffff" stroke-width="1" transform="translate(479.8 224.8) scale(0.86)"/>

  <!-- wordmark -->
  <text x="540" y="480" text-anchor="middle" font-size="66" font-weight="800" letter-spacing="10" fill="#fffffe">UNRAVEL</text>

  <!-- eyebrow pill -->
  <rect x="361" y="536" width="358" height="56" rx="28" fill="#eebbc3"/>
  <text x="540" y="573" text-anchor="middle" font-size="26" font-weight="700" letter-spacing="4" fill="#232946">NOW INSTALLABLE</text>

  <!-- headline -->
  <text x="540" y="695" text-anchor="middle" font-size="80" font-weight="800" fill="#fffffe">Add Unravel to</text>
  <text x="540" y="788" text-anchor="middle" font-size="80" font-weight="800" fill="#fffffe">your home screen</text>

  <!-- tagline -->
  <text x="540" y="858" text-anchor="middle" font-size="32" font-weight="400" fill="#b8c1ec">The uncomplicated way of making new friends.</text>

  <!-- install card -->
  <rect x="90" y="912" width="900" height="576" rx="40" fill="#b8c1ec" fill-opacity="0.06" stroke="#b8c1ec" stroke-opacity="0.18" stroke-width="2"/>
  <text x="540" y="988" text-anchor="middle" font-size="28" font-weight="700" letter-spacing="6" fill="#eebbc3">HOW TO INSTALL</text>
  <line x1="540" y1="1028" x2="540" y2="1398" stroke="#b8c1ec" stroke-opacity="0.15" stroke-width="2"/>

  <!-- iPhone column -->
  <text x="150" y="1096" font-size="36" font-weight="700" fill="#fffffe">iPhone</text>
  <text x="150" y="1134" font-size="24" font-weight="400" fill="#b8c1ec" opacity="0.75">in Safari</text>
  <circle cx="172" cy="1204" r="19" fill="none" stroke="#eebbc3" stroke-width="2"/>
  <text x="172" y="1213" text-anchor="middle" font-size="24" font-weight="700" fill="#eebbc3">1</text>
  <text x="212" y="1213" font-size="28" font-weight="400" fill="#fffffe">Tap Share</text>
  <circle cx="172" cy="1299" r="19" fill="none" stroke="#eebbc3" stroke-width="2"/>
  <text x="172" y="1308" text-anchor="middle" font-size="24" font-weight="700" fill="#eebbc3">2</text>
  <text x="212" y="1308" font-size="28" font-weight="400" fill="#fffffe">Add to Home Screen</text>

  <!-- Android column -->
  <text x="590" y="1096" font-size="36" font-weight="700" fill="#fffffe">Android</text>
  <text x="590" y="1134" font-size="24" font-weight="400" fill="#b8c1ec" opacity="0.75">in Chrome</text>
  <circle cx="612" cy="1204" r="19" fill="none" stroke="#eebbc3" stroke-width="2"/>
  <text x="612" y="1213" text-anchor="middle" font-size="24" font-weight="700" fill="#eebbc3">1</text>
  <text x="652" y="1213" font-size="28" font-weight="400" fill="#fffffe">Tap the menu</text>
  <circle cx="612" cy="1299" r="19" fill="none" stroke="#eebbc3" stroke-width="2"/>
  <text x="612" y="1308" text-anchor="middle" font-size="24" font-weight="700" fill="#eebbc3">2</text>
  <text x="652" y="1308" font-size="28" font-weight="400" fill="#fffffe">Tap Install app</text>

  <!-- card footer tip -->
  <text x="540" y="1438" text-anchor="middle" font-size="24" font-weight="400" fill="#b8c1ec" opacity="0.6">Works offline once it's on your home screen.</text>

  <!-- CTA pill -->
  <rect x="200" y="1540" width="680" height="100" rx="26" fill="#eebbc3"/>
  <text x="540" y="1603" text-anchor="middle" font-size="36" font-weight="700" fill="#232946">unravel.tiagocostadev.com</text>

  <!-- footer credit -->
  <text x="540" y="1850" text-anchor="middle" font-size="24" font-weight="400" fill="#b8c1ec" opacity="0.5">Made by Tiago Costa · tiagocostadev.com</text>
</svg>
